# xmcd
#
# Track frame offsets: 
#        150
#        16184
#        31179
#        47396
#        64046
#        79024
#        92799
#        107633
#        122915
#        135723
#        151932
#        164767
#        180408
#        196650
#        208358
#        226412
#        243067
#        259019
#        272617
#        286642
#
# Disc length: 4043 seconds
#
# Revision: 3
# Processed by: cddbd v1.5.2PL0 Copyright (c) Steve Scherf et al.
# Submitted via: ExactAudioCopy v1.0b1
#
DISCID=020fc914
DTITLE=Various Artist - Fetenhits - Best Of 2005 [CD 2)
DYEAR=2005
DGENRE=Pop
TTITLE0=Kool Savas Azad - All 4 One
TTITLE1=Christina Stürmer - Ich lebe
TTITLE2=Juli  - Geile Zeit
TTITLE3=Hermes House Band feat. Tony Christie - (Is This The Way To) A
TTITLE3=marillo
TTITLE4=Hot Banditoz - Shake Your Balla (1,2,3 Alarma)
TTITLE5=Aneela - Jande
TTITLE6=Speedy feat. Lumidee - Sientelo
TTITLE7=Blue Lagoon - Heartbreaker
TTITLE8=Crazy Frog  - Axel F
TTITLE9=Banaroo - Dubi Dam Dam
TTITLE10=Ch!Pz  - Cowboy
TTITLE11=Danzel  - Put Your Hands Up In The Air!
TTITLE12=Shaun Baker  - Xplode 2
TTITLE13=Sunset Strippers  - Falling Stars
TTITLE14=DJ Sammy  - Why
TTITLE15=The Disco Boys feat. Manfred Mann's Earth Band - For You
TTITLE16=Second Spring - Living On My Own
TTITLE17=Baracuda - Ass Up
TTITLE18=Mylo - Drop The Pressure
TTITLE19=Tim Toupet - Du hast die Haare schön
EXTD=
EXTT0=
EXTT1=
EXTT2=
EXTT3=
EXTT4=
EXTT5=
EXTT6=
EXTT7=
EXTT8=
EXTT9=
EXTT10=
EXTT11=
EXTT12=
EXTT13=
EXTT14=
EXTT15=
EXTT16=
EXTT17=
EXTT18=
EXTT19=
PLAYORDER=
